<?xml version="1.0" encoding="UTF-8"?>
<svg id="Layer_1" xmlns="http://www.w3.org/2000/svg" version="1.1" viewBox="0 0 688.7 643.5">
  <!-- Generator: Adobe Illustrator 29.8.0, SVG Export Plug-In . SVG Version: 2.1.1 Build 160)  -->
  <defs>
    <style>
      .st0 {
        fill: #000040;
      }

      .st1 {
        fill: #fff;
      }
    </style>
  </defs>
  <path class="st0" d="M429.3,263.8c0-1-1.7-2.8-1-4.5,7.2,4.2,12.5,31,18,33.5,12.6,5.8,21.8-24,23.5-32.4,4.3-21.6,3.4-44.4-4.5-65,3.1,2.5,6.4,5.5,9,8.5,4.6,5.5,11.9,21.2,16.1,23.9s10.2.6,12.5-4.4c9-19.7-7.8-49.8-15.5-68,1-1,12.5,10.3,15.3,11.2,11.7,3.9,15-5.8,17.2-15.2,5.8-24.2,1.1-54.5-15.5-73.5-.2-.7,1-.7,1.5-.5,3.7,1.6,14.3,9.5,17.5,12.5,11.6,10.7,21,28.1,24.5,43.5,1.7,7.4,1,23.4,11,25s14.5-5.1,20.4-10c-2.2,19.9-18.9,36-25.5,54-10.7,29.3,19.5,26.7,32.5,10-7.1,24.3-24.2,44.5-44.7,58.8-8.5,5.9-34.8,15.9-21.4,28.7,10.3,9.9,28.9,4,40.7,1.6s1.9,0,1.4,1.4c-1.1,2.5-9,10.3-11.5,12.5-10.8,9.3-25.3,16.2-39.1,19.9s-30.4,4.2-35.9,9.1c-10.9,9.8,4,15.5,9.5,22-12.8,2-25.3-3-37.5-4-33-2.5-70.2,21.1-86.7,49.2-5.7,9.7-7.1,13.7-7.1,13.7h-15.4c-12.2-35.6-57.4-65.3-94.7-62.9-12.6.8-25.4,5.9-38.5,4-.6-2.3.4-1.6,1.3-2.3,5-3.9,13.6-6.9,11.5-15s-25.4-10-34-12c-20.6-4.8-44.7-17.3-55.8-35.7,11.6,4,33.8,7.6,43-2.5s-14.2-22-22.4-27.7c-16.9-11.7-32.9-28.9-40.9-48.1s-3.2-7.1-2.3-9.7c12.6,16,40.9,17.8,31.3-10.3s-23.2-34.6-25.8-54.7c8.6,8.6,24.1,17.7,29.3.8,2.4-7.8,2.4-16.4,5.2-24.8,6.5-19.1,21-37.5,39.5-46-14.2,19.9-19.4,47.1-14.6,71s5.4,21.1,17.3,17.2,9.5-8.9,15.3-11.2c-7.4,17.1-24,50.3-14.9,68.4,8.9,17.6,19.7-8.6,24.5-15.3s8-9.7,12.4-14.1c-8.6,21.6-8.9,46.7-3.7,69.2,1.9,8.1,12,36.5,24.1,28.7s11.1-29.6,18.6-33.9c-6.9,23.6,2.1,51.6,20,68l6-20.5,4-8.5c-2.4,36.2,27.2,61.4,39,93l1.6-1.9c.2-25.4,5.4-53.4,2.4-78.6-1.4-11.9-4.4-23.7-13-32.5h42c-3,3.7-5.6,7.6-7.5,12-3.8,9.1-5.1,21.6-5.6,31.4-1.1,23,2.3,46.6,3.1,69.5,6.5-8.3,10.5-18.5,15.8-27.7,12-20.6,26.5-38.4,25.2-64.3l9.5,28c8.6-7.6,15.3-19.1,19-30s3.5-11.9,3.5-13.5c0-6.2.4-12.9,0-19h.1ZM307.3,370.3c.4-1.9-1-2.4-2-3.5-4.3-5.1-12.3-12.2-17.5-16.5-14.1-11.6-30.2-19.6-44.8-30.2-48.9-35.7-85.5-98.5-87.4-159.9,0-3.8.9-8.1.7-12.4s.8-3.7-1-3.5c-6.2,44.3,8.7,86.1,31,123.5-.8,1.6-1.8,0-2.5-.5-7.2-4-14-8.8-21.2-12.8s-2.5-2.2-3.3-.7c9.2,7.8,23.5,13.9,32,22s13.1,17,19.9,24.1,20.1,18,30,27l-39.5-4.5-8.5,1c7.8,0,15.5,1.1,23.2,2.3,22.8,3.5,34.3,6.2,54.1,17.9,13,7.7,25.6,16.5,36.7,26.8h0ZM504.3,269.3c5.2-11.7,12.1-22.5,17.2-34.3,11.4-26.6,19.3-58,14.7-87.1s-.4-3.7-1.9-3.6c5.4,59.7-26.9,124.5-71,163.5-25.2,22.4-57.6,34.3-80,61-.9,1.1-2.4,1.6-2,3.5,10.8-11,23.4-19.9,36.7-27.8,16.4-9.8,25.1-13.3,44.1-16.9s21.4-3.2,32.2-4.3c.2-1.8-3.4-1.1-4.5-1-13.5,1-27,3.7-40.5,4.5,11.6-10.7,24.4-20.2,35-32,5-5.5,10.1-14.2,15.1-18.9,8.5-8.1,23.1-14.1,32.4-21.6,1-2.2-1.4-.6-2.2-.2-8.6,4.7-17,10-25.3,15.2h0Z"/>
  <path class="st0" d="M354.1,124.8l8.5-12,9,11c1.7-.9,3.1-2.4,4.4-3.8s4.7-7.4,6.1-6.2l11.5,18c2.4-7.4,8.4-12.6,16.5-12-4.5,5.4-6.6,8.2-6,15.5s4.4,16.2,6.5,19.5,1.1.5,2,0c4.1-2.5,8.1-6.9,13.5-7-2,4.1-4.5,7.8-5,12.5-1.2,10.6,4.2,17.2,3,27.5,2.9-.1,3.7-3.1,6.7-3.8s7,0,10.3-.2c-16.2,10.4-16.4,27.6-25,42.5,5.7-.8,12.5-.5,17,3.5-20.6,3.1-31.3,23.5-49.3,33.2-21.8,11.8-58.3,12.2-80.4,1-18.6-9.4-28.7-29.8-49.3-34.2-.3-2.5,0-1.6,1.4-2.1,4.7-1.7,7.5-2.1,12.3-1.1s-.9-5.1-1.4-6.6c-3.6-10-5.3-21.1-12.7-29.3s-5.8-4.2-8.5-7c6.5-.6,11.7,0,17,4-.9-13.9,8.7-27.3-2-40,1.7-1.3,13.1,5.8,14.5,8,6.1-11.5,14.1-25.7,1.5-36,9.4-.4,13.1,5.3,18,12l11.5-18,9,10,9-11,9,12,11.5-13,10,13h0ZM318.1,150.8l5.8-15.7-4.3-8.3c-2.1,6.5-2.8,13.7-2.5,20.5s-.8,3.7,1,3.5ZM369.1,151.8c0-8.3-.5-16.9-2.5-25l-5.2,8.5,7.7,16.5ZM355.1,155.8l-11.6-13.9c-1.5-.3-11.6,10.7-12.4,12.4s-.3,1.6.5,1.5l11.8-9.8,11.7,9.8ZM291.1,175.8c.7-3.8,2.1-7.4,3.5-11s7.2-14,7.3-15.7-1.5-3-2.4-3.3c-1.7-.7-2.1,2.2-2.6,3.3-2.8,6.4-5.7,16.6-6.6,23.4s-1.1,3.4.7,3.2h0ZM388.1,145.8c-2.3.4-4.9.6-3.8,3.3l11.8,26.7c-.8-10.4-4.5-20.3-8-30ZM344.1,180.8v-16.5c0-.2-1.4-1.6-2-1.5v18h2ZM330.1,187.8c.6-.7-6.1-9.4-7-10.5-4.1-4.5-4.7-6.5-9.5-1.5s-6.4,7.7-6,10l10-8.9,12.5,10.9ZM379.1,185.8c.8-.9-7.9-13-10.5-13s-11.2,13.2-13.5,16l13.5-12,10.5,9ZM277.1,206.8c-1.8-3.9,4.1-14.5,3.8-16.5s-2.9-1.8-3.8-2.9c-1.4-1.7-1-4.9-3-5.5l1.1,16.4,1.9,8.6h0ZM410.1,206.8c.7-8.4,2.8-16.5,2-25-1.8.9-1.3,3.5-3,5.5s-2.3,2.2-4,2.5l5,16.9h0ZM369.1,211.3c1.3-5-.9-14.9,0-20.5l-2,18.5v3.5c.7,0,2-1.2,2-1.5ZM316.1,229.8c-2.8-2.8-19.9-25.2-23-23-3.3,7.2-3.3,14.2-3,22l4.5-17,21.5,18ZM397.1,228.8c0-7.3.2-16-4.5-22-2.6-.6-19.8,19.7-22.5,23,1.9.4,2.4-1,3.5-2,5.8-4.9,11.6-10.7,17-16l2.4,1.7,4.1,15.4h0ZM357.1,225.8l-13.5-16.9c-1-.1-12.9,13.1-13.5,14.5s-.3,1.6.5,1.5l12.9-10.9,13.6,11.9h0ZM344.1,253.8v-26l-1.7,17.5c1.6,2.7-1.3,7.3,1.7,8.5ZM311.1,251.8c-2.7-6.3-5.4-12.9-8.5-19s-.9-2.8-2.5-3c2.7,7.5,5.9,15.9,11,22ZM375.1,250.8c4.4-4.9,7.1-12.7,9-19l-5.8,10.6-3.1,8.4h-.1Z"/>
  <path class="st0" d="M341.1,12.8l2,77c1.7.2.9-2.3,1-3.5,1-24.4,1.6-49,2-73.5,13.7.8,28,.4,41.5,3l2.8.6s-7.4,23.6-8.4,27.7c-2.4,9.8-4.2,19.7-5.9,29.6l19.1-55.9,20.9,4.9c-10.2,19.9-19.5,40.6-26,62l18.5-39c1.5-2.8,10.5-19.9,11.5-20.5,2.4-1.5,22,7.9,22,9.1-24.3,23.5-40.3,54.9-49,87.5-3.7-3.3-6.1-8.8-8.2-13.3-1.2-2.6.3-4.6-3.3-5.7l-9.5,14-10-15-9,15-9.5-16-11.5,16-8.5-16-10,16c-2.3-2-6.8-16.6-10.5-14-2,6.6-5.1,14.1-10,19-8.1-32.3-24.6-64.5-49-87.5,0-1.8,20.5-10.5,21.9-9.4l13.6,24.9,17.5,37c-7.2-22-16.6-43.3-27-64l20.9-4.9,20.1,56.9c-4-19.4-7.8-39-15-57.5,0-1.4,8.5-2.2,10.5-2.5,11.3-1.5,23.1-1.5,34.5-2h0ZM359.1,86.8l8-62c-1.5-.2-1.5,2.7-1.7,3.8-3.2,17-5.9,37.5-7.3,54.7s-.7,3.7,1,3.5ZM328.1,87.8c-.8-17.9-3.3-35.7-6.2-53.3s-.4-6-1.8-6.7l4.1,37.4,3.8,22.6h.1Z"/>
  <path class="st1" d="M502.1,266.8c8.3-5.2,16.7-10.5,25.3-15.2.8-.4,3.2-2,2.2.2-9.3,7.5-23.9,13.5-32.4,21.6-4.9,4.7-10.1,13.4-15.1,18.9-10.6,11.7-23.4,21.3-35,32,13.5-.8,27-3.5,40.5-4.5s4.7-.8,4.5,1c-10.8,1.1-21.6,2.3-32.2,4.3-19,3.6-27.7,7.1-44.1,16.9-13.3,7.9-25.8,16.8-36.7,27.8-.4-1.9,1-2.4,2-3.5,22.4-26.6,54.8-38.6,80-61,44.1-39.1,76.4-103.8,71-163.5,1.5-.2,1.7,2.6,1.9,3.6,4.5,29.1-3.4,60.5-14.7,87.1-5.1,11.8-11.9,22.6-17.2,34.3h0Z"/>
  <path class="st1" d="M305.1,367.8c-11.1-10.3-23.7-19.1-36.7-26.8-19.8-11.7-31.3-14.4-54.1-17.9s-15.4-2.3-23.2-2.3l8.5-1,39.5,4.5c-10-9-20.7-17.3-30-27s-13.5-17.9-19.9-24.1-22.9-14.2-32-22c.8-1.5,2.4.2,3.3.7,7.2,4,14,8.8,21.2,12.8s1.7,2.1,2.5.5c-22.3-37.4-37.2-79.2-31-123.5,1.8-.2.9,2.3,1,3.5.2,4.3-.8,8.7-.7,12.4,1.8,61.4,38.4,124.1,87.4,159.9,14.6,10.7,30.7,18.6,44.8,30.2,14.1,11.6,13.3,11.4,17.5,16.5s2.4,1.6,2,3.5h0Z"/>
  <path class="st1" d="M316.1,229.8l-21.5-18-4.5,17c-.3-7.8-.3-14.8,3-22,3.1-2.2,20.2,20.1,23,23Z"/>
  <path class="st1" d="M397.1,228.8l-4.1-15.4-2.4-1.7c-5.4,5.4-11.2,11.1-17,16s-1.6,2.4-3.5,2c2.7-3.3,19.9-23.6,22.5-23,4.7,6,4.6,14.7,4.5,22h0Z"/>
  <path class="st1" d="M388.1,145.8c3.5,9.7,7.2,19.6,8,30l-11.8-26.7c-1.1-2.6,1.5-2.9,3.8-3.3Z"/>
  <path class="st1" d="M291.1,175.8c-1.8.2-.9-2.1-.7-3.2.9-6.9,3.8-17.1,6.6-23.4s.9-4,2.6-3.3,2.4,2.2,2.4,3.3c-.2,1.7-6.1,12.8-7.3,15.7s-2.8,7.2-3.5,11h0Z"/>
  <path class="st1" d="M369.1,151.8l-7.7-16.5,5.2-8.5c2,8.1,2.5,16.7,2.5,25Z"/>
  <path class="st1" d="M379.1,185.8l-10.5-9-13.5,12c2.3-2.9,10.3-16,13.5-16s11.3,12.1,10.5,13Z"/>
  <path class="st1" d="M357.1,225.8l-13.6-11.9-12.9,10.9c-.7.2-.7-1.1-.5-1.5.6-1.4,12.5-14.6,13.5-14.5l13.5,16.9h0Z"/>
  <path class="st1" d="M318.1,150.8c-1.7.2-.9-2.3-1-3.5-.3-6.8.4-14,2.5-20.5l4.3,8.3-5.8,15.7Z"/>
  <path class="st1" d="M330.1,187.8l-12.5-10.9-10,8.9c-.4-2.3,4-7.9,6-10,4.8-4.9,5.4-3,9.5,1.5s7.6,9.8,7,10.5Z"/>
  <path class="st1" d="M410.1,206.8l-5-16.9c1.7-.3,3-1.2,4-2.5,1.6-2,1.2-4.6,3-5.5.8,8.5-1.3,16.6-2,25h0Z"/>
  <path class="st1" d="M277.1,206.8l-1.9-8.6-1.1-16.4c2,.6,1.5,3.8,3,5.5s3.6,1.8,3.8,2.9c.3,2-5.6,12.7-3.8,16.5h0Z"/>
  <path class="st1" d="M355.1,155.8l-11.7-9.8-11.8,9.8c-.7.2-.7-1.1-.5-1.5.8-1.8,10.8-12.7,12.4-12.4l11.6,13.9Z"/>
  <path class="st1" d="M344.1,180.8h-2v-18c.6,0,2,1.3,2,1.5v16.5Z"/>
  <path class="st1" d="M344.1,253.8c-3.1-1.3,0-5.9-1.7-8.5l1.7-17.5v26Z"/>
  <path class="st1" d="M311.1,251.8c-5.1-6.1-8.3-14.5-11-22,1.5.2,1.9,1.9,2.5,3,3.1,6.1,5.8,12.7,8.5,19Z"/>
  <path class="st1" d="M375.1,250.8l3.1-8.4,5.8-10.6c-1.9,6.3-4.6,14.1-9,19h.1Z"/>
  <path class="st1" d="M369.1,211.3c0,.3-1.4,1.5-2,1.5v-3.5l2-18.5c-.9,5.6,1.3,15.5,0,20.5Z"/>
  <path class="st1" d="M359.1,86.8c-1.7.3-1.1-2.4-1-3.5,1.4-17.2,4.1-37.8,7.3-54.7s.2-4,1.7-3.8l-8,62Z"/>
  <path class="st1" d="M328.1,87.8l-3.8-22.6-4.1-37.4c1.5.6,1.6,5,1.8,6.7,2.8,17.6,5.4,35.5,6.2,53.3h-.1Z"/>
  <g>
    <path class="st0" d="M17.4,453.3l5.9-5.3-2.9,18.2h-7l.6-18.2h56.7l.5,18.2h-7l-2.9-18.2,5.9,5.3H17.4ZM43.9,508.1l14.6,1.5v4.7H26.2v-4.7l14.4-1.5h3.2ZM35.8,479c0-10.3,0-20.7-.3-31h13.6c-.3,10.1-.3,20.5-.3,31v4.3c0,10.3,0,20.7.3,31h-13.6c.3-10.1.3-20.5.3-31v-4.3Z"/>
    <path class="st0" d="M77.1,452.6v-4.7h29.8v4.7l-13.8,1.5h-2.5l-13.5-1.5ZM93.1,508.1l13.8,1.5v4.7h-29.8v-4.7l13.5-1.5h2.5ZM85.6,479c0-10.3,0-20.7-.3-31h13.6c-.3,10.1-.3,20.5-.3,31v3c0,11.6,0,22,.3,32.3h-13.6c.3-10.1.3-20.5.3-31v-4.3ZM92.1,482.9v-5.2h40v5.2h-40ZM117.3,452.6v-4.7h29.8v4.7l-13.7,1.5h-2.4l-13.7-1.5ZM133.4,508.1l13.7,1.5v4.7h-29.8v-4.7l13.7-1.5h2.4ZM125.6,479c0-10.3,0-20.7-.3-31h13.6c-.3,10.1-.3,20.5-.3,31v4.3c0,10.3,0,20.7.3,31h-13.6c.3-10.1.3-20.5.3-32.3v-3Z"/>
    <path class="st0" d="M154.9,452.6v-4.7h30.2v4.7l-13.9,1.5h-2.5l-13.8-1.5ZM171.1,508.1l13.9,1.5v4.7h-30.2v-4.7l13.8-1.5h2.5ZM163.5,479c0-10.3,0-20.7-.3-31h13.6c-.3,10.1-.3,20.5-.3,31v4.3c0,10.3,0,20.7.3,31h-13.6c.3-10.1.3-20.5.3-31v-4.3Z"/>
    <path class="st0" d="M192.8,452.6v-4.7h15.1v6.2h-1.3l-13.8-1.5ZM209.1,508.1l13.8,1.5v4.7h-30.1v-4.7l13.8-1.5h2.6ZM201.4,479c0-10.3,0-20.7-.3-31h13.4c-.3,10.3-.3,20.3-.3,31.6v3c0,11,0,21.4.3,31.7h-13.4c.3-10.1.3-20.5.3-31v-4.3ZM207.9,478.6h12.1c10.4,0,14.5-5.8,14.5-13.1s-4.4-12.5-13.7-12.5h-13v-5.2h15.1c15.5,0,24.4,6.4,24.4,17.1s-6.2,15.8-21.6,16.9l.2-.9c11.6.6,15.7,4.8,18,14.7l3.8,16-5.7-3.6,12.7,1.4v4.7c-3.3.9-5.3,1.2-9.1,1.2-7.4,0-11.2-2-12.3-8.3l-3-13.9c-1.5-7.4-4.6-9.6-11.7-9.6h-10.6v-5.1Z"/>
    <path class="st0" d="M259.4,452.6v-4.7h30.5v4.7l-13.9,1.5h-2.8l-13.8-1.5ZM274.4,508.1v6.2h-15.1v-4.7l13.8-1.5h1.3ZM267.7,448h13.6c-.3,10.2-.3,20.6-.3,31v6.1c0,8.6,0,19,.3,29.2h-13.6c.3-10.2.3-20.6.3-29.9v-5.4c0-10.4,0-20.8-.3-31ZM311.1,495.1l-1,19.2h-35.7v-5.4h32.3l-6.6,5.4,4-19.2h7Z"/>
    <path class="st0" d="M317,452.6v-4.7h15.1v6.2h-1.3l-13.8-1.5ZM332,508.1v6.2h-15.1v-4.7l13.8-1.5h1.3ZM325.6,479c0-10.3,0-20.7-.3-31h13.6c-.3,10.1-.3,20.5-.3,31v3.5c0,11.1,0,21.5.3,31.8h-13.6c.3-10.1.3-20.5.3-31v-4.3ZM358,448l5.9,5.3h-31.9v-5.3h35.3l.7,17.5h-7l-3-17.5ZM354.3,482.9h-22.3v-5.3h22.3v5.3ZM370.1,496.8l-.7,17.5h-37.3v-5.3h33.9l-5.9,5.3,3-17.5h7ZM351.2,479l1.5-10.1h5.2v22.6h-5.2l-1.5-10.6v-1.9Z"/>
    <path class="st0" d="M410.4,499.7c0-5.9-3.2-8.5-10.6-11.6l-4-1.7c-11-4.7-17.9-10.6-17.9-21.2s9.7-18.9,23.6-18.9,13,2,17.6,5.2l-.7,13.5h-7.6l-2.6-15.1,7.2,3.1v5c-5.1-4.3-8.9-6.2-14.1-6.2s-12,3.8-12,10.2,3.6,9,10.2,11.7l4.3,1.8c13,5.4,18.2,11.1,18.2,20.9s-9.5,19.6-24.9,19.6-15.4-2-20.6-5.3l.6-14.4h7.7l2.6,15.8-7.1-2.6v-4.8c6.3,4,10,5.8,16.7,5.8s13.3-4.3,13.3-10.8Z"/>
    <path class="st0" d="M430.2,453.3l5.9-5.3-2.9,18.2h-7l.6-18.2h56.7l.5,18.2h-7l-2.9-18.2,5.9,5.3h-49.8ZM456.7,508.1l14.6,1.5v4.7h-32.2v-4.7l14.4-1.5h3.2ZM448.6,479c0-10.3,0-20.7-.3-31h13.6c-.3,10.1-.3,20.5-.3,31v4.3c0,10.3,0,20.7.3,31h-13.6c.3-10.1.3-20.5.3-31v-4.3Z"/>
    <path class="st0" d="M479.3,509.6l10.1-1.5h1.9l10.2,1.5v4.7h-22.3v-4.7ZM508.4,447.6h8.2l22.7,66.7h-13.3l-18.6-56.7,3-2.6-19.7,59.3h-5.3l22.9-66.7ZM497.2,488.6h27l1.9,5.2h-30.6l1.6-5.2ZM515.4,509.7l11.9-1.5h4.4l12.6,1.5v4.6h-28.9v-4.6Z"/>
    <path class="st0" d="M548.3,509.6l10.6-1.5h2.4l12.2,1.5v4.7h-25.2v-4.7ZM554.1,451.3l6,2.6-11.4-1.2v-4.7h18.9l38.6,53.1v13.7h-5.9l-46.2-63.5ZM556.8,448l5.7,4.7v61.6h-5.7v-66.3ZM589.4,448h25.2v4.7l-10.1,1.5h-2.4l-12.7-1.5v-4.7ZM600.4,448h5.7v66.8l-5.7-5.7v-61.1Z"/>
    <path class="st0" d="M620.9,452.6v-4.7h15.1v6.2h-1.3l-13.8-1.5ZM635.9,508.1v6.2h-15.1v-4.7l13.8-1.5h1.3ZM629.5,479c0-10.3,0-20.7-.3-31h13.6c-.3,10.1-.3,20.5-.3,31v3.5c0,11.1,0,21.5.3,31.8h-13.6c.3-10.1.3-20.5.3-31v-4.3ZM661.9,448l5.9,5.3h-31.9v-5.3h35.3l.7,17.5h-7l-3-17.5ZM658.2,482.9h-22.3v-5.3h22.3v5.3ZM674,496.8l-.7,17.5h-37.3v-5.3h33.9l-5.9,5.3,3-17.5h7ZM655.1,479l1.5-10.1h5.2v22.6h-5.2l-1.5-10.6v-1.9Z"/>
    <path class="st0" d="M130.5,572.6v-4.7h30.2v4.7l-13.9,1.5h-2.5l-13.8-1.5ZM146.8,628.1l13.9,1.5v4.7h-30.2v-4.7l13.8-1.5h2.5ZM139.1,599c0-10.3,0-20.7-.3-31h13.6c-.3,10.1-.3,20.5-.3,31v4.3c0,10.3,0,20.7.3,31h-13.6c.3-10.1.3-20.5.3-31v-4.3Z"/>
    <path class="st0" d="M167.4,629.6l11.1-1.5h2.4l9.8,1.5v4.7h-23.4v-4.7ZM167.9,568h13.8v6.2c0,0-1.3,0-1.3,0l-12.4-1.5v-4.7ZM176.8,568h5l.8,32.3v34.1h-5.8v-66.3ZM177.1,568h13l21.2,54.2h-3.4l20-54.2h6l-24.6,66.3h-6.3l-26-66.3ZM221.1,629.6l12.4-1.5h3.3l13.8,1.5v4.7h-29.5v-4.7ZM229.2,604.4l.2-36.4h13c-.3,10.2-.3,20.6-.3,31v4.3c0,10.4,0,20.8.3,31h-13.4c.3-10.2.3-20.6.3-29.9ZM235.5,568h14.9v4.7l-13.6,1.5h-1.3v-6.2Z"/>
    <path class="st0" d="M255.1,629.6l10.1-1.5h1.9l10.2,1.5v4.7h-22.3v-4.7ZM284.2,567.6h8.2l22.7,66.7h-13.3l-18.6-56.7,3-2.6-19.7,59.3h-5.3l22.9-66.7ZM273,608.6h27l1.9,5.2h-30.6l1.6-5.2ZM291.2,629.7l11.9-1.5h4.4l12.6,1.5v4.6h-28.9v-4.6Z"/>
    <path class="st0" d="M378.6,630.1c-6.9,3.8-13.7,5.9-22.3,5.9-20.3,0-34.1-13.9-34.1-34.9s13.4-34.8,34.9-34.8,14,1.5,19.7,4.7l.4,15.1h-6.9l-3-15.4,6.6,1.7v5.5c-5.1-4.4-10-6.2-15.4-6.2-12.4,0-22.1,9.9-22.1,29.5s9.1,29.5,22.4,29.5,8.4-1.2,13.4-3.8l-6.1,5.6v-6.7c0-7.9-.1-15.5-.3-23.4h13.1c-.2,7.8-.3,15.6-.3,23.6v4.3ZM356.1,606.9v-4.7h28.3v4.7l-11.4,1.3h-4.3l-12.6-1.3Z"/>
    <path class="st0" d="M388.7,572.6v-4.7h30.2v4.7l-13.9,1.5h-2.5l-13.8-1.5ZM405,628.1l13.9,1.5v4.7h-30.2v-4.7l13.8-1.5h2.5ZM397.3,599c0-10.3,0-20.7-.3-31h13.6c-.3,10.1-.3,20.5-.3,31v4.3c0,10.3,0,20.7.3,31h-13.6c.3-10.1.3-20.5.3-31v-4.3Z"/>
    <path class="st0" d="M426.2,629.6l10.6-1.5h2.4l12.2,1.5v4.7h-25.2v-4.7ZM431.9,571.3l6,2.6-11.4-1.2v-4.7h18.9l38.6,53.1v13.7h-5.9l-46.2-63.5ZM434.7,568l5.7,4.7v61.6h-5.7v-66.3ZM467.3,568h25.2v4.7l-10.1,1.5h-2.4l-12.7-1.5v-4.7ZM478.2,568h5.7v66.8l-5.7-5.7v-61.1Z"/>
    <path class="st0" d="M554.4,630.1c-6.9,3.8-13.7,5.9-22.3,5.9-20.3,0-34.1-13.9-34.1-34.9s13.4-34.8,34.9-34.8,14,1.5,19.7,4.7l.4,15.1h-6.9l-3-15.4,6.6,1.7v5.5c-5.1-4.4-10-6.2-15.4-6.2-12.4,0-22.1,9.9-22.1,29.5s9.1,29.5,22.4,29.5,8.4-1.2,13.4-3.8l-6.1,5.6v-6.7c0-7.9-.1-15.5-.3-23.4h13.1c-.2,7.8-.3,15.6-.3,23.6v4.3ZM531.9,606.9v-4.7h28.3v4.7l-11.4,1.3h-4.3l-12.6-1.3Z"/>
  </g>
</svg>